<?xml version="1.0" encoding="UTF-8"?>
<svg xmlns="http://www.w3.org/2000/svg" id="Laag_1" data-name="Laag 1" viewBox="0 0 1165.15 441.62">
  <defs>
    <style>.cls-1{fill:#fff;}.cls-2{fill:#58585a;}</style>
  </defs>
  <polygon class="cls-1" points="92.3 147.37 73.94 165.73 73.94 275.89 92.3 294.25 110.66 275.89 110.66 165.73 92.3 147.37"></polygon>
  <polygon class="cls-2" points="239.17 147.37 220.81 165.73 220.81 275.89 239.17 294.25 257.53 275.89 257.53 165.73 239.17 147.37"></polygon>
  <polygon class="cls-2" points="165.73 73.94 165.73 367.68 202.45 330.96 202.45 110.66 165.73 73.94"></polygon>
  <polygon class="cls-1" points="129.01 110.66 129.01 330.96 165.73 367.68 165.73 73.94 129.01 110.66"></polygon>
  <path class="cls-1" d="M294.45,194.75H311.4c10.42,0,17.7,6.67,17.7,19.57V228c0,12.82-7.28,19.65-17.7,19.65H294.45Zm16.12,45.82c6.38,0,11.18-3.3,11.18-14.32V216c0-10.87-4.73-14.1-11.18-14.1H301.8v38.7Z"></path>
  <path class="cls-1" d="M349.72,194.75H358l16.88,52.87h-7.73l-3.6-11.93H343.87l-3.67,11.93h-7.65Zm12,34.57-7.87-26.47-8.1,26.47Z"></path>
  <path class="cls-1" d="M381.3,194.75h7.35v52.87H381.3Z"></path>
  <path class="cls-1" d="M399.9,194.75h7.35v45.74h20.32v7.13H399.9Z"></path>
  <path class="cls-1" d="M439.12,228.34,422.7,194.75h7.95L442.8,220.7l12.37-25.95h7.88l-16.58,33.59v19.28h-7.35Z"></path>
  <path class="cls-1" d="M495.67,201.87H482.92v-7.12h32.92v7.12H503v45.75h-7.35Z"></path>
  <path class="cls-1" d="M523.72,194.75h16c10.72,0,17.62,6.6,17.62,18.45v1.5c0,8.77-4.58,14.25-11.48,16.12l11.25,16.8h-8.47l-9.75-15.23h-7.8v15.23h-7.35Zm15.15,30.59c6.3,0,11.17-3.14,11.17-10.72v-1.8c0-8.25-4.8-10.95-11.17-10.95h-7.8v23.47Z"></path>
  <path class="cls-1" d="M578.32,194.75h8.25l16.87,52.87h-7.72l-3.6-11.93H572.47l-3.68,11.93h-7.64Zm12,34.57-7.88-26.47-8.1,26.47Z"></path>
  <path class="cls-1" d="M609.89,194.75h17c10.43,0,17.7,6.67,17.7,19.57V228c0,12.82-7.27,19.65-17.7,19.65h-17ZM626,240.57c6.37,0,11.17-3.3,11.17-14.32V216c0-10.87-4.72-14.1-11.17-14.1h-8.78v38.7Z"></path>
  <path class="cls-1" d="M654.29,194.75h29.4v7.12H661.64v15.9h16.05v6.52H661.64v16.2h22.05v7.13h-29.4Z"></path>
  <path class="cls-1" d="M709.57,194.75h28.27v7.12H716.92v15.9h14.85v6.52H716.92v23.33h-7.35Z"></path>
  <path class="cls-1" d="M752.09,194.75h8.25l16.88,52.87h-7.73l-3.6-11.93H746.24l-3.67,11.93h-7.65Zm12,34.57-7.87-26.47-8.1,26.47Z"></path>
  <path class="cls-1" d="M783.67,194.75H791v52.87h-7.35Z"></path>
  <path class="cls-1" d="M802.27,194.75h16c10.73,0,17.63,6.6,17.63,18.45v1.5c0,8.77-4.58,14.25-11.48,16.12l11.25,16.8h-8.47l-9.75-15.23h-7.8v15.23h-7.35Zm15.15,30.59c6.3,0,11.17-3.14,11.17-10.72v-1.8c0-8.25-4.8-10.95-11.17-10.95h-7.8v23.47Z"></path>
  <path class="cls-1" d="M860.39,190.7h4.27v60.74h-4.27Z"></path>
  <path class="cls-1" d="M887.46,194.75h4.65l15.75,46.42,15.83-46.42h4.65L910,247.62h-4.35Z"></path>
  <path class="cls-1" d="M935.61,194.75h29.33v4.35H940v19.8h17.85v4H940v20.47h24.9v4.28H935.61Z"></path>
  <path class="cls-1" d="M974.61,194.75h4l27.22,44.62V194.75h4.43v52.87h-4L979,203.15v44.47h-4.43Z"></path>
  <path class="cls-1" d="M1021.79,194.75h4.42v48.59h23.25v4.28h-27.67Z"></path>
  <path class="cls-1" d="M1055.76,229.84V212.37c0-10.87,7.2-18.45,17.7-18.45,10.35,0,17.7,7.58,17.7,18.45v17.47c0,10.88-7.35,18.38-17.7,18.38C1063,248.22,1055.76,240.72,1055.76,229.84Zm31,.16V212.22c0-8.62-5.62-14-13.27-14-7.42,0-13.27,5.17-13.27,14V230c0,8.62,5.55,13.94,13.27,13.94C1080.81,243.94,1086.73,238.84,1086.73,230Z"></path>
  <path class="cls-1" d="M321.53,305.06c5.22,0,8.46,4.25,8.46,10.19a15.88,15.88,0,0,1-7.67,14c3.78,2.45,6.87,4.29,6.87,4.29a4.61,4.61,0,0,1-1.47,1.91s-3.1-2.6-7-5.44a11.83,11.83,0,0,1-4.17.79c-5.26,0-8.5-4.25-8.5-10.18C308.06,311.94,314.36,305.06,321.53,305.06Zm-4.72,24.19c5.76,0,10.94-6.26,10.94-14.07,0-5-2.52-8.61-6.51-8.61-5.76,0-10.94,6.27-10.94,14.08C310.3,325.69,312.82,329.25,316.81,329.25Z"></path>
  <path class="cls-1" d="M336,315.5c.25-1.22-.07-1.62-.54-1.62-.83,0-2,1.33-2.12,1.33a1.56,1.56,0,0,1-.47-1s1.73-1.94,3.7-1.94c1.19,0,2,.65,1.59,2.84l-2.16,11a2.16,2.16,0,0,0,2.27,2.88c3.09,0,6.19-3.74,7.48-7l1.84-9.43h2.05l-2.91,15c-.26,1.23.07,1.62.54,1.62.82,0,2.05-1.33,2.12-1.33a1.63,1.63,0,0,1,.5,1s-1.76,1.94-3.74,1.94c-1.15,0-2-.65-1.55-2.84l.61-3.24c-1.11,2.66-4.35,6.08-7.88,6.08-2.59,0-4-1.73-3.45-4.39Z"></path>
  <path class="cls-1" d="M365.88,324.82c-1.23,2.59-4.5,5.94-7.78,5.94-2.66,0-4.53-2.16-4.53-6.23,0-6.19,4.42-12.27,11.16-12.27a9.94,9.94,0,0,1,5.36,1.48l-2.7,13.78c-.25,1.23.11,1.62.58,1.62.82,0,2-1.33,2.12-1.33a1.64,1.64,0,0,1,.47,1s-1.77,1.94-3.75,1.94c-1.15,0-2-.65-1.54-2.84ZM359,329c3,0,6.16-3.81,7.45-7l1.44-7.3a9.51,9.51,0,0,0-3.74-.87c-4.72,0-8.42,5.08-8.42,10.51C355.73,327.41,357.09,329,359,329Z"></path>
  <path class="cls-1" d="M379,306.21c.21-1.08-.15-1.4-.72-1.4a5.44,5.44,0,0,0-1.7.5,1.38,1.38,0,0,1-.43-1,7.63,7.63,0,0,1,3.46-1.08c1.29,0,1.91.65,1.55,2.38l-4.22,21.88c-.28,1.23.08,1.62.54,1.62.83,0,2.06-1.33,2.13-1.33a1.64,1.64,0,0,1,.47,1s-1.73,1.94-3.71,1.94c-1.19,0-2-.65-1.58-2.84Z"></path>
  <path class="cls-1" d="M387,327.52c-.25,1.23.11,1.62.58,1.62.82,0,2.05-1.33,2.08-1.33a1.45,1.45,0,0,1,.51,1s-1.77,1.94-3.75,1.94c-1.15,0-2-.65-1.54-2.84l2.41-12.42c.25-1.22-.07-1.62-.54-1.62-.83,0-2.05,1.33-2.13,1.33a1.62,1.62,0,0,1-.46-1s1.72-1.94,3.7-1.94c1.19,0,2,.65,1.59,2.84Zm2.52-22.85a1.2,1.2,0,0,1,1.22,1.25,1.83,1.83,0,0,1-1.83,1.77,1.19,1.19,0,0,1-1.23-1.26A1.83,1.83,0,0,1,389.53,304.67Z"></path>
  <path class="cls-1" d="M399.86,312.51h5.69l-.29,1.37h-5.65l-2.38,12.27c-.36,1.73.33,3,2,3,2,0,3.64-1.69,3.82-1.69a1.28,1.28,0,0,1,.39.94,7.83,7.83,0,0,1-5.11,2.37c-2.66,0-3.67-2.05-3.2-4.61l2.41-12.27h-2.95l.1-.61a8.74,8.74,0,0,0,4.86-4.79h1.08Z"></path>
  <path class="cls-1" d="M403.28,339.08c0-1.44,1-2.92,1.3-2.92a10.53,10.53,0,0,0,2.27,1.15,19.24,19.24,0,0,0,7.7-6.55l-4.64-15.26c-.36-1.19-.62-1.62-1.08-1.62-.83,0-2.06,1.33-2.13,1.33a1.61,1.61,0,0,1-.47-1s1.77-1.94,3.68-1.94c1.15,0,1.51.68,2.12,2.84l4.07,13.75a30.19,30.19,0,0,0,5.5-12.77,8.81,8.81,0,0,0-1.58-2.52c0-.33,1.4-1.3,2.88-1.3a3.37,3.37,0,0,1,.68.07c-.14,11.95-11.69,27.43-20.22,27.43A3.25,3.25,0,0,1,403.28,339.08Z"></path>
  <path class="cls-1" d="M441.12,312.51h5.68l-.28,1.37h-5.65l-2.38,12.27c-.36,1.73.32,3,2,3,2,0,3.63-1.69,3.81-1.69s.4.5.4.94a7.86,7.86,0,0,1-5.11,2.37c-2.67,0-3.68-2.05-3.21-4.61l2.41-12.27h-2.95l.11-.61a8.8,8.8,0,0,0,4.86-4.79h1.08Z"></path>
  <path class="cls-1" d="M451.7,327.52c-.25,1.23.11,1.62.58,1.62.83,0,2.05-1.33,2.08-1.33a1.45,1.45,0,0,1,.51,1s-1.76,1.94-3.74,1.94c-1.16,0-2-.65-1.55-2.84L452,315.5c.25-1.22-.07-1.62-.54-1.62-.83,0-2.05,1.33-2.12,1.33a1.56,1.56,0,0,1-.47-1s1.73-1.94,3.71-1.94c1.18,0,2,.65,1.58,2.84Zm2.52-22.85a1.2,1.2,0,0,1,1.23,1.25,1.83,1.83,0,0,1-1.84,1.77,1.18,1.18,0,0,1-1.22-1.26A1.82,1.82,0,0,1,454.22,304.67Z"></path>
  <path class="cls-1" d="M482,327.52c-.25,1.23.11,1.62.54,1.62.86,0,2.05-1.33,2.12-1.33a1.45,1.45,0,0,1,.51,1s-1.77,1.94-3.75,1.94c-1.15,0-2-.65-1.54-2.84L482.05,317c.32-1.73-.47-2.92-1.95-2.92-2.62,0-5.76,3.89-7,7.27l-1.76,9.18h-2.05L471.93,317c.33-1.73-.47-2.92-1.91-2.92-2.62,0-5.68,3.78-6.94,7.13l-1.84,9.32h-2.05l2.92-15c.25-1.22-.08-1.62-.54-1.62-.83,0-2.06,1.33-2.13,1.33a1.61,1.61,0,0,1-.47-1s1.73-1.94,3.71-1.94c1.19,0,2,.65,1.58,2.84l-.61,3.14c1.08-2.67,4.11-6,7.27-6,2.38,0,3.64,1.73,3.1,4.39l-.36,1.8c1-2.7,4.14-6.19,7.38-6.19,2.37,0,3.63,1.76,3.09,4.39Z"></path>
  <path class="cls-1" d="M490.87,322a10.69,10.69,0,0,0-.07,1.12c0,3.71,1.8,6,5,6a9.89,9.89,0,0,0,5.94-2.41c.14,0,.36.54.36,1a10.84,10.84,0,0,1-7,3.06c-4,0-6.48-2.88-6.48-7.49,0-6,4.24-11,10-11,3.32,0,5,1.69,5,4.18C503.68,319.17,501.52,321.29,490.87,322Zm.22-1.36c8.92-.58,10.72-2.13,10.72-4.21,0-1.62-1.11-2.67-3.35-2.67C494.65,313.77,492,317.08,491.09,320.65Z"></path>
  <path class="cls-1" d="M516.86,312.51h3l.36-1.87c.87-4.35,3.46-7.38,7.56-7.38,2.31,0,3.82,1,3.82,1.33s-1.33,2.52-1.66,2.52L528.27,305a1.81,1.81,0,0,0-1-.22c-2.52,0-4.28,2.23-5,5.83l-.4,1.91h5.36l-.29,1.37h-5.32l-3.78,19.37c-.72,3.81-3.31,6.51-7.31,6.51-2.45,0-3.92-1-3.85-1.33a7.83,7.83,0,0,1,1.62-2.52c.57.72,1.19,1.4,1.73,2.12a1.7,1.7,0,0,0,1,.22c2.48,0,4.21-1.95,4.82-5l3.75-19.4h-3Z"></path>
  <path class="cls-1" d="M537.63,312.26c4,0,6.52,3.06,6.52,7.49,0,6-4.76,11-9.79,11-3.93,0-6.48-3.06-6.48-7.52C527.88,317.19,532.63,312.26,537.63,312.26Zm-3,17c3.85,0,7.45-4.46,7.45-9.72,0-3.35-1.66-5.76-4.57-5.76-3.89,0-7.49,4.43-7.49,9.69C530,326.87,531.66,329.25,534.61,329.25Z"></path>
  <path class="cls-1" d="M561,312.94a4,4,0,0,1-1.26,2.92,10.72,10.72,0,0,0-2.3-1.19,13.08,13.08,0,0,0-5.51,6.55l-1.8,9.29h-2l2.91-15c.26-1.22-.07-1.62-.54-1.62-.82,0-2.05,1.33-2.12,1.33a1.61,1.61,0,0,1-.47-1s1.73-1.94,3.71-1.94c1.19,0,2,.65,1.58,2.84l-.65,3.24c1.23-2.66,4.83-6.08,8.43-6.08A4.19,4.19,0,0,1,561,312.94Z"></path>
  <path class="cls-1" d="M585.08,327.52c-.26,1.23.1,1.62.57,1.62.83,0,2.05-1.33,2.13-1.33a1.65,1.65,0,0,1,.46,1s-1.76,1.94-3.74,1.94c-1.15,0-2-.65-1.55-2.84L585.11,317a2.24,2.24,0,0,0-2.37-2.92c-3.17,0-6.3,3.85-7.63,7.2l-1.77,9.25h-2.05l4.68-24.3c.22-1.08-.14-1.4-.72-1.4a5.26,5.26,0,0,0-1.69.5,1.34,1.34,0,0,1-.43-1,7.56,7.56,0,0,1,3.45-1.08c1.3,0,1.91.65,1.55,2.38l-2.45,12.74c1.15-2.66,4.39-6.12,8-6.12,2.63,0,4.07,1.76,3.57,4.39Z"></path>
  <path class="cls-1" d="M601.53,312.26c4,0,6.51,3.06,6.51,7.49,0,6-4.75,11-9.79,11-3.92,0-6.48-3.06-6.48-7.52C591.77,317.19,596.53,312.26,601.53,312.26Zm-3,17c3.85,0,7.45-4.46,7.45-9.72,0-3.35-1.66-5.76-4.58-5.76-3.88,0-7.48,4.43-7.48,9.69C593.9,326.87,595.55,329.25,598.51,329.25Z"></path>
  <path class="cls-1" d="M634.83,327.52c-.26,1.23.11,1.62.54,1.62.86,0,2-1.33,2.12-1.33a1.45,1.45,0,0,1,.5,1s-1.76,1.94-3.74,1.94c-1.15,0-2-.65-1.55-2.84L634.86,317c.33-1.73-.46-2.92-1.94-2.92-2.63,0-5.76,3.89-7,7.27l-1.76,9.18h-2.06L624.75,317c.32-1.73-.47-2.92-1.91-2.92-2.63,0-5.69,3.78-7,7.13l-1.83,9.32h-2l2.91-15c.25-1.22-.07-1.62-.54-1.62-.83,0-2,1.33-2.12,1.33a1.61,1.61,0,0,1-.47-1s1.73-1.94,3.71-1.94c1.19,0,2,.65,1.58,2.84l-.61,3.14c1.08-2.67,4.1-6,7.27-6,2.38,0,3.64,1.73,3.1,4.39l-.36,1.8c1-2.7,4.14-6.19,7.38-6.19,2.37,0,3.63,1.76,3.09,4.39Z"></path>
  <path class="cls-1" d="M643.69,322a10.73,10.73,0,0,0-.08,1.12c0,3.71,1.8,6,5,6a9.89,9.89,0,0,0,5.94-2.41c.15,0,.36.54.36,1a10.81,10.81,0,0,1-7,3.06c-4,0-6.48-2.88-6.48-7.49,0-6,4.25-11,10-11,3.31,0,5,1.69,5,4.18C656.5,319.17,654.34,321.29,643.69,322Zm.21-1.36c8.93-.58,10.73-2.13,10.73-4.21,0-1.62-1.12-2.67-3.35-2.67C647.47,313.77,644.8,317.08,643.9,320.65Z"></path>
  <path class="cls-1" d="M660.06,328c.69,0,1.05.4,1.05,1.26,0,3.1-4,6.09-4.14,6.09s-.76-.4-.72-.58c0,0,2.52-1.65,2.52-4.14,0,0-.43-.18-.43-1A1.66,1.66,0,0,1,660.06,328Z"></path>
  <path class="cls-1" d="M307.49,378a23.14,23.14,0,0,0,1.11,3,4.67,4.67,0,0,0,2.24.47c4.13,0,6.65-2.84,7.59-7.63l1.12-5.83c-1.19,2.59-4.47,6-7.78,6-2.66,0-4.53-2.16-4.53-6.23,0-6.19,4.42-12.27,11.15-12.27a10,10,0,0,1,5.37,1.48l-3.28,16.77c-1.11,5.79-4.46,9.25-9.79,9.25-5,0-5.94-3.06-5.94-3.49S307.06,378,307.49,378Zm5.18-5.87c3,0,6.16-3.81,7.42-7l1.44-7.3a9.28,9.28,0,0,0-3.71-.87c-4.72,0-8.42,5.08-8.42,10.51C309.4,370.61,310.76,372.16,312.67,372.16Z"></path>
  <path class="cls-1" d="M330.28,370.72c-.26,1.23.1,1.62.57,1.62.83,0,2-1.33,2.09-1.33a1.45,1.45,0,0,1,.5,1S331.68,374,329.7,374c-1.15,0-2-.65-1.55-2.84l2.41-12.42c.26-1.22-.07-1.62-.54-1.62-.82,0-2,1.33-2.12,1.33a1.61,1.61,0,0,1-.47-1s1.73-1.94,3.71-1.94c1.19,0,2,.65,1.58,2.84Zm2.52-22.85a1.2,1.2,0,0,1,1.22,1.26,1.83,1.83,0,0,1-1.84,1.76,1.18,1.18,0,0,1-1.22-1.26A1.83,1.83,0,0,1,332.8,347.87Z"></path>
  <path class="cls-1" d="M338.41,355.71h3l.36-1.87c.87-4.35,3.46-7.38,7.56-7.38,2.31,0,3.82,1,3.82,1.33s-1.33,2.52-1.66,2.52l-1.69-2.12a1.76,1.76,0,0,0-1-.22c-2.52,0-4.28,2.24-5,5.83l-.4,1.91h5.36l-.28,1.37H343.2l-3.78,19.37c-.72,3.81-3.31,6.51-7.31,6.51-2.45,0-3.92-1-3.85-1.33a7.83,7.83,0,0,1,1.62-2.52c.58.72,1.19,1.4,1.73,2.12a1.7,1.7,0,0,0,1,.22c2.48,0,4.21-1.95,4.82-5l3.75-19.4h-3Z"></path>
  <path class="cls-1" d="M356.05,355.71h5.69l-.29,1.37H355.8l-2.38,12.27c-.36,1.73.33,3,2,3,2,0,3.63-1.69,3.81-1.69s.4.5.4.94a7.86,7.86,0,0,1-5.11,2.37c-2.66,0-3.67-2-3.2-4.61l2.41-12.27H350.8l.1-.61a8.77,8.77,0,0,0,4.86-4.79h1.08Z"></path>
  <path class="cls-1" d="M384.56,368c-1.22,2.59-4.5,5.94-7.77,5.94-2.67,0-4.54-2.16-4.54-6.23,0-6.19,4.43-12.27,11.16-12.27a9.94,9.94,0,0,1,5.36,1.48l-2.7,13.78c-.25,1.23.11,1.62.58,1.62.83,0,2.05-1.33,2.12-1.33a1.64,1.64,0,0,1,.47,1S387.48,374,385.5,374c-1.16,0-2-.65-1.55-2.84Zm-6.87,4.14c3,0,6.15-3.81,7.45-7l1.44-7.3a9.59,9.59,0,0,0-3.75-.87c-4.71,0-8.42,5.08-8.42,10.51C374.41,370.61,375.78,372.16,377.69,372.16Z"></path>
  <path class="cls-1" d="M407.38,370.72c-.25,1.23.08,1.62.54,1.62.83,0,2.06-1.33,2.13-1.33a1.63,1.63,0,0,1,.5,1s-1.76,1.94-3.74,1.94c-1.15,0-2-.65-1.55-2.84l2.16-10.94a2.25,2.25,0,0,0-2.38-2.92c-3.2,0-6.33,3.89-7.63,7.2l-1.8,9.25h-2.05l2.92-15c.25-1.22-.07-1.62-.54-1.62-.83,0-2.05,1.33-2.13,1.33a1.62,1.62,0,0,1-.46-1s1.72-1.94,3.7-1.94c1.19,0,2,.65,1.59,2.84l-.65,3.21c1.19-2.63,4.43-6.05,7.95-6.05,2.67,0,4.11,1.76,3.57,4.39Z"></path>
  <path class="cls-1" d="M426.39,367.77c-1.08,2.63-4.5,6.19-7.84,6.19-2.67,0-4.58-2.16-4.58-6.19,0-6.69,5.26-12.31,10.51-12.31a5.57,5.57,0,0,1,4,1.55l1.48-7.6c.18-1.08-.18-1.4-.72-1.4a5.25,5.25,0,0,0-1.73.5,1.52,1.52,0,0,1-.43-1,7.56,7.56,0,0,1,3.45-1.08c1.3,0,1.91.65,1.59,2.38l-4.25,21.88c-.25,1.23.07,1.62.54,1.62.83,0,2-1.33,2.12-1.33a1.45,1.45,0,0,1,.47,1s-1.73,1.94-3.71,1.94c-1.15,0-2-.65-1.55-2.84Zm-6.94,4.39c3,0,6.11-3.81,7.41-7l0-.11,1.15-5.83a4.91,4.91,0,0,0-4-2.27c-3.71,0-7.92,4.75-7.92,10.51C416.17,370.61,417.5,372.16,419.45,372.16Z"></path>
  <path class="cls-1" d="M443.85,378a23.11,23.11,0,0,0,1.12,3,4.65,4.65,0,0,0,2.23.47c4.14,0,6.66-2.84,7.6-7.63l1.11-5.83c-1.19,2.59-4.46,6-7.77,6-2.67,0-4.54-2.16-4.54-6.23,0-6.19,4.43-12.27,11.16-12.27a9.89,9.89,0,0,1,5.36,1.48l-3.27,16.77c-1.12,5.79-4.47,9.25-9.79,9.25-5,0-5.94-3.06-5.94-3.49S443.42,378,443.85,378Zm5.19-5.87c3,0,6.15-3.81,7.41-7l1.44-7.3a9.28,9.28,0,0,0-3.71-.87c-4.71,0-8.42,5.08-8.42,10.51C445.76,370.61,447.13,372.16,449,372.16Z"></path>
  <path class="cls-1" d="M475.68,368c-1.23,2.59-4.5,5.94-7.78,5.94-2.66,0-4.53-2.16-4.53-6.23,0-6.19,4.42-12.27,11.15-12.27a10,10,0,0,1,5.37,1.48l-2.7,13.78c-.25,1.23.11,1.62.57,1.62.83,0,2.06-1.33,2.13-1.33a1.64,1.64,0,0,1,.47,1s-1.77,1.94-3.75,1.94c-1.15,0-2-.65-1.55-2.84Zm-6.88,4.14c3,0,6.16-3.81,7.45-7l1.44-7.3A9.51,9.51,0,0,0,474,357c-4.72,0-8.42,5.08-8.42,10.51C465.53,370.61,466.89,372.16,468.8,372.16Z"></path>
  <path class="cls-1" d="M497.6,356.14a4,4,0,0,1-1.26,2.92,10.72,10.72,0,0,0-2.3-1.19,13.08,13.08,0,0,0-5.51,6.55l-1.8,9.29h-2.05l2.91-15c.25-1.22-.07-1.62-.54-1.62-.83,0-2.05,1.33-2.12,1.33a1.61,1.61,0,0,1-.47-1s1.73-1.94,3.71-1.94c1.19,0,2,.65,1.58,2.84l-.65,3.24c1.23-2.66,4.83-6.08,8.43-6.08A4.19,4.19,0,0,1,497.6,356.14Z"></path>
  <path class="cls-1" d="M511.06,367.77c-1.08,2.63-4.5,6.19-7.84,6.19-2.67,0-4.58-2.16-4.58-6.19,0-6.69,5.26-12.31,10.52-12.31a5.57,5.57,0,0,1,4,1.55l1.48-7.6c.18-1.08-.18-1.4-.72-1.4a5.25,5.25,0,0,0-1.73.5,1.52,1.52,0,0,1-.43-1,7.56,7.56,0,0,1,3.45-1.08c1.3,0,1.91.65,1.59,2.38l-4.25,21.88c-.25,1.23.07,1.62.54,1.62.83,0,2-1.33,2.12-1.33a1.45,1.45,0,0,1,.47,1S513.94,374,512,374c-1.15,0-2-.65-1.54-2.84Zm-6.94,4.39c3,0,6.12-3.81,7.41-7l0-.11,1.15-5.83a4.91,4.91,0,0,0-4-2.27c-3.71,0-7.92,4.75-7.92,10.51C500.84,370.61,502.17,372.16,504.12,372.16Z"></path>
  <path class="cls-1" d="M521.5,365.21c0,.37-.07.76-.07,1.12,0,3.71,1.8,6,5,6a9.89,9.89,0,0,0,5.94-2.41c.14,0,.36.54.36,1a10.81,10.81,0,0,1-7,3.06c-4,0-6.48-2.88-6.48-7.49,0-6,4.25-11,10-11,3.31,0,5,1.69,5,4.18C534.32,362.37,532.16,364.5,521.5,365.21Zm.22-1.36c8.93-.58,10.73-2.13,10.73-4.21,0-1.62-1.12-2.67-3.35-2.67C525.28,357,522.62,360.28,521.72,363.85Z"></path>
  <path class="cls-1" d="M551.78,370.72c-.25,1.23.07,1.62.54,1.62.83,0,2-1.33,2.12-1.33a1.63,1.63,0,0,1,.51,1S553.18,374,551.2,374c-1.15,0-2-.65-1.55-2.84l2.16-10.94a2.24,2.24,0,0,0-2.37-2.92c-3.2,0-6.34,3.89-7.63,7.2l-1.8,9.25h-2l2.91-15c.25-1.22-.07-1.62-.54-1.62-.83,0-2.05,1.33-2.12,1.33a1.61,1.61,0,0,1-.47-1s1.73-1.94,3.71-1.94c1.19,0,2,.65,1.58,2.84l-.65,3.21c1.19-2.63,4.43-6.05,8-6.05,2.66,0,4.1,1.76,3.56,4.39Z"></path>
  <path class="cls-1" d="M572.12,361.54c1.19-2.59,4.5-6.08,7.85-6.08,2.66,0,4.53,2.16,4.53,6.19,0,6.7-5.22,12.31-10.51,12.31a5.41,5.41,0,0,1-4-1.55l-2,10.3h-2l4.68-24c.25-1.22-.11-1.62-.57-1.62-.83,0-2.06,1.33-2.13,1.33a1.62,1.62,0,0,1-.46-1s1.72-1.94,3.74-1.94c1.15,0,2,.65,1.55,2.84Zm7-4.28c-3.06,0-6.27,3.92-7.49,7.13l-1.15,5.79a4.84,4.84,0,0,0,4,2.27c3.74,0,8-4.75,8-10.51C582.34,358.81,581,357.26,579.07,357.26Z"></path>
  <path class="cls-1" d="M601.31,356.14a4,4,0,0,1-1.26,2.92,10.49,10.49,0,0,0-2.3-1.19,13.08,13.08,0,0,0-5.51,6.55l-1.8,9.29h-2.05l2.92-15c.25-1.22-.08-1.62-.54-1.62-.83,0-2.06,1.33-2.13,1.33a1.61,1.61,0,0,1-.47-1s1.73-1.94,3.71-1.94c1.19,0,2,.65,1.59,2.84l-.65,3.24c1.22-2.66,4.82-6.08,8.42-6.08A3.31,3.31,0,0,1,601.31,356.14Z"></path>
  <path class="cls-1" d="M612.33,355.46c4,0,6.51,3.06,6.51,7.49,0,6-4.75,11-9.79,11-3.92,0-6.48-3.06-6.48-7.52C602.57,360.39,607.33,355.46,612.33,355.46Zm-3,17c3.85,0,7.45-4.46,7.45-9.72,0-3.35-1.66-5.76-4.58-5.76-3.88,0-7.48,4.43-7.48,9.69C604.7,370.07,606.35,372.45,609.31,372.45Z"></path>
  <path class="cls-1" d="M623.45,355.71h3l.36-1.87c.86-4.35,3.45-7.38,7.56-7.38,2.3,0,3.81,1,3.81,1.33a6.82,6.82,0,0,1-1.65,2.52l-1.7-2.12a1.76,1.76,0,0,0-1-.22c-2.52,0-4.28,2.24-5,5.83l-.4,1.91h5.37l-.29,1.37h-5.33l-3.78,19.37c-.72,3.81-3.31,6.51-7.31,6.51-2.44,0-3.92-1-3.85-1.33a7.83,7.83,0,0,1,1.62-2.52c.58.72,1.19,1.4,1.73,2.12a1.72,1.72,0,0,0,1,.22c2.49,0,4.21-1.95,4.83-5l3.74-19.4h-3Z"></path>
  <path class="cls-1" d="M636.67,365.21a10.73,10.73,0,0,0-.08,1.12c0,3.71,1.8,6,5,6a9.85,9.85,0,0,0,5.94-2.41c.15,0,.36.54.36,1a10.81,10.81,0,0,1-7,3.06c-4,0-6.48-2.88-6.48-7.49,0-6,4.25-11,10-11,3.31,0,5,1.69,5,4.18C649.48,362.37,647.32,364.5,636.67,365.21Zm.21-1.36c8.93-.58,10.73-2.13,10.73-4.21,0-1.62-1.12-2.67-3.35-2.67C640.45,357,637.78,360.28,636.88,363.85Z"></path>
  <path class="cls-1" d="M653.33,368.53a5.56,5.56,0,0,0,1.12,3c.43.61,1.87.9,3.31.9,3,0,5-1.4,5-3.31,0-3.85-8.93-3.46-8.93-8.57,0-2.55,2.2-5.11,7.24-5.11,4.1,0,5.07,1.66,5.07,1.66-.14,1.72-1.4,3.34-1.94,3.34a5.59,5.59,0,0,0-1-2.77,3.31,3.31,0,0,0-2.31-.72c-3.53,0-5.11,1.44-5.11,3.17,0,4.07,8.93,3.67,8.93,8.64,0,2.73-2.67,5.18-7.6,5.18-4.39,0-5.76-2-5.76-2C651.53,370,652.83,368.53,653.33,368.53Z"></path>
  <path class="cls-1" d="M670,368.53a5.54,5.54,0,0,0,1.11,3c.43.61,1.87.9,3.31.9,3,0,5-1.4,5-3.31,0-3.85-8.92-3.46-8.92-8.57,0-2.55,2.19-5.11,7.23-5.11,4.11,0,5.08,1.66,5.08,1.66-.15,1.72-1.41,3.34-1.95,3.34a5.5,5.5,0,0,0-1-2.77,3.3,3.3,0,0,0-2.3-.72c-3.53,0-5.12,1.44-5.12,3.17,0,4.07,8.93,3.67,8.93,8.64,0,2.73-2.66,5.18-7.59,5.18-4.4,0-5.76-2-5.76-2C668.24,370,669.53,368.53,670,368.53Z"></path>
  <path class="cls-1" d="M689.15,370.72c-.25,1.23.11,1.62.58,1.62.83,0,2-1.33,2.09-1.33a1.49,1.49,0,0,1,.5,1s-1.76,1.94-3.74,1.94c-1.16,0-2-.65-1.55-2.84l2.41-12.42c.25-1.22-.07-1.62-.54-1.62-.83,0-2,1.33-2.12,1.33a1.56,1.56,0,0,1-.47-1s1.73-1.94,3.71-1.94c1.18,0,2,.65,1.58,2.84Zm2.52-22.85a1.21,1.21,0,0,1,1.23,1.26,1.83,1.83,0,0,1-1.84,1.76,1.18,1.18,0,0,1-1.22-1.26A1.82,1.82,0,0,1,691.67,347.87Z"></path>
  <path class="cls-1" d="M705.67,355.46c4,0,6.52,3.06,6.52,7.49,0,6-4.75,11-9.79,11-3.92,0-6.48-3.06-6.48-7.52C695.92,360.39,700.67,355.46,705.67,355.46Zm-3,17c3.85,0,7.45-4.46,7.45-9.72,0-3.35-1.65-5.76-4.57-5.76-3.89,0-7.49,4.43-7.49,9.69C698,370.07,699.7,372.45,702.65,372.45Z"></path>
  <path class="cls-1" d="M730,370.72c-.25,1.23.08,1.62.54,1.62.83,0,2.06-1.33,2.13-1.33a1.63,1.63,0,0,1,.5,1S731.38,374,729.4,374c-1.15,0-2-.65-1.55-2.84L730,360.18a2.25,2.25,0,0,0-2.38-2.92c-3.2,0-6.33,3.89-7.63,7.2l-1.8,9.25h-2.05l2.92-15c.25-1.22-.07-1.62-.54-1.62-.83,0-2,1.33-2.13,1.33a1.62,1.62,0,0,1-.46-1s1.72-1.94,3.7-1.94c1.19,0,2,.65,1.59,2.84l-.65,3.21c1.19-2.63,4.43-6.05,7.95-6.05,2.67,0,4.11,1.76,3.57,4.39Z"></path>
  <path class="cls-1" d="M749.05,368c-1.22,2.59-4.5,5.94-7.77,5.94-2.66,0-4.54-2.16-4.54-6.23,0-6.19,4.43-12.27,11.16-12.27a10,10,0,0,1,5.37,1.48l-2.7,13.78c-.26,1.23.1,1.62.57,1.62.83,0,2.05-1.33,2.13-1.33a1.65,1.65,0,0,1,.46,1S752,374,750,374c-1.15,0-2-.65-1.55-2.84Zm-6.87,4.14c3,0,6.15-3.81,7.45-7l1.44-7.3a9.51,9.51,0,0,0-3.74-.87c-4.72,0-8.43,5.08-8.43,10.51C738.9,370.61,740.27,372.16,742.18,372.16Z"></path>
  <path class="cls-1" d="M762.12,349.41c.22-1.08-.14-1.4-.72-1.4a5.26,5.26,0,0,0-1.69.5,1.34,1.34,0,0,1-.43-1,7.62,7.62,0,0,1,3.45-1.08c1.3,0,1.91.65,1.55,2.38l-4.21,21.88c-.29,1.23.07,1.62.54,1.62.83,0,2-1.33,2.12-1.33a1.59,1.59,0,0,1,.47,1s-1.73,1.94-3.7,1.94c-1.19,0-2-.65-1.59-2.84Z"></path>
  <path class="cls-1" d="M767.78,368.53a5.46,5.46,0,0,0,1.11,3c.43.61,1.87.9,3.31.9,3,0,5-1.4,5-3.31,0-3.85-8.92-3.46-8.92-8.57,0-2.55,2.19-5.11,7.23-5.11,4.1,0,5.08,1.66,5.08,1.66-.15,1.72-1.41,3.34-2,3.34a5.5,5.5,0,0,0-1-2.77,3.31,3.31,0,0,0-2.31-.72c-3.52,0-5.11,1.44-5.11,3.17,0,4.07,8.93,3.67,8.93,8.64,0,2.73-2.66,5.18-7.6,5.18-4.39,0-5.75-2-5.75-2C766,370,767.27,368.53,767.78,368.53Z"></path>
</svg>
